# xmcd
#
# Track frame offsets: 
#        150
#        15862
#        29991
#        45928
#        62129
#        77060
#        93848
#        107161
#        119812
#        135150
#        147098
#        161560
#        176483
#        194005
#        210589
#        220972
#        237974
#        255877
#        270945
#        285670
#
# Disc length: 3994 seconds
#
# Revision: 0
# Processed by: cddbd v1.5.2PL0 Copyright (c) Steve Scherf et al.
# Submitted via: ExactAudioCopy v1.1
#
DISCID=140f9814
DTITLE=Various Artist - Het Beste Uit MENT Top 600 - CD 2
DYEAR=2017
DGENRE=Pop-Folk
TTITLE0=Willy Sommers - Liefste
TTITLE1=Wim Soutaer - Dans Voor Mij
TTITLE2=Eveline Cannoot - Ik Ben Verliefd
TTITLE3=Luc Steeno - De Zomer Van Je Leven
TTITLE4=Gerard Joling - Iedereen Doet 't
TTITLE5=Dana Winner - Een Zee Vol Dromen
TTITLE6=Beatrice Egli - Verrückt Nach Dir
TTITLE7=Rocco Granata - Marina
TTITLE8=Metejoor Feat. Daniel Lopez - Ik Hou Van Jou
TTITLE9=Fadim - Ik Verlang Zo Naar Jou
TTITLE10=Herbert - Elisa
TTITLE11=Maarten Cox - Het Leven Lacht Je Toe
TTITLE12=Corry Konings - Buenos Noches Mi Amigo
TTITLE13=Maartje Van Neygen - Canta Baila
TTITLE14=André Van Duin and Van Huys Uit - Als De Zon Schijnt
TTITLE15=Liliane Saint-Pierre - Ik Leef
TTITLE16=Johan Veugelers - Schreeuw Het Uit
TTITLE17=Mieke - En Opeens
TTITLE18=Dana Winner - Jij Bent De Zon and Ik De Maan
TTITLE19=André Hazes - Wie Kan Mij Vertellen...
EXTD=
EXTT0=
EXTT1=
EXTT2=
EXTT3=
EXTT4=
EXTT5=
EXTT6=
EXTT7=
EXTT8=
EXTT9=
EXTT10=
EXTT11=
EXTT12=
EXTT13=
EXTT14=
EXTT15=
EXTT16=
EXTT17=
EXTT18=
EXTT19=
PLAYORDER=
